<?xml version="1.0" encoding="UTF-8" standalone="no"?>
<!DOCTYPE svg PUBLIC "-//W3C//DTD SVG 1.0//EN" "http://www.w3.org/TR/2001/REC-SVG-20010904/DTD/svg10.dtd">
<!-- Created with Inkscape (http://www.inkscape.org/) by Steadfast-->
<svg xmlns:svg="http://www.w3.org/2000/svg" xmlns="http://www.w3.org/2000/svg" version="1.0" width="900" height="340" id="svg5996">
  <defs id="defs5998"/>
  <g id="layer1">
    <g transform="matrix(3.21595, 0, 0, 3.21595, -799.626, -705.903)" id="g6035">
      <path d="M 252.84224,276.47604 C 252.84224,276.47604 466.98799,230.24642 525.38949,297.88992 C 459.59849,238.85779 252.84224,276.47604 252.84224,276.47604" id="path21" style="fill: rgb(27, 69, 143); fill-opacity: 1; fill-rule: evenodd; stroke: none;"/>
      <path d="M 373.89474,318.16792 C 373.89474,317.80017 373.82662,317.45192 373.69374,317.12092 C 373.55874,316.79179 373.36812,316.49767 373.11624,316.24042 C 372.87249,315.98492 372.58899,315.79042 372.26512,315.65192 C 371.94487,315.51542 371.60362,315.44742 371.24787,315.44742 C 370.89099,315.44742 370.55087,315.51404 370.22737,315.65042 C 369.90524,315.78542 369.62012,315.98142 369.36812,316.24042 C 369.11724,316.49417 368.92487,316.78642 368.79374,317.11742 C 368.66237,317.44617 368.59387,317.79667 368.59387,318.16792 C 368.59387,318.53367 368.66237,318.88054 368.79374,319.20754 C 368.92487,319.53492 369.11724,319.82729 369.36812,320.08492 C 369.62012,320.34179 369.90524,320.53979 370.22562,320.67479 C 370.54587,320.80954 370.88749,320.87792 371.24787,320.87792 C 371.60149,320.87792 371.93737,320.80954 372.25624,320.67479 C 372.57524,320.53979 372.86224,320.34179 373.11624,320.08492 C 373.36812,319.82729 373.55874,319.53492 373.69374,319.20617 C 373.82662,318.87704 373.89474,318.53004 373.89474,318.16792 z M 375.12212,318.16792 C 375.12212,318.68242 375.02574,319.17067 374.83299,319.62992 C 374.63912,320.08842 374.35887,320.49979 373.98749,320.85842 C 373.61474,321.21942 373.19312,321.49579 372.72362,321.68679 C 372.25449,321.87917 371.76274,321.97342 371.24787,321.97342 C 370.72487,321.97342 370.22737,321.87742 369.75299,321.68467 C 369.27849,321.49092 368.86037,321.21592 368.49749,320.85842 C 368.12474,320.49979 367.84662,320.08979 367.65387,319.63492 C 367.46287,319.17779 367.36649,318.68954 367.36649,318.16792 C 367.36649,317.64779 367.46287,317.15954 367.65387,316.70104 C 367.84662,316.24042 368.12474,315.82904 368.49749,315.46617 C 368.86712,315.10579 369.28562,314.83129 369.75474,314.64342 C 370.22387,314.45454 370.72274,314.35992 371.24787,314.35992 C 371.76974,314.35992 372.26374,314.45454 372.73249,314.64342 C 373.19987,314.83129 373.61837,315.10579 373.98749,315.46617 C 374.35887,315.83254 374.63912,316.24754 374.83299,316.70779 C 375.02574,317.16804 375.12212,317.65492 375.12212,318.16792" id="path23" style="fill: rgb(27, 69, 143); fill-opacity: 1; fill-rule: evenodd; stroke: none;"/>
      <path d="M 376.73287,321.78104 L 376.73287,314.23954 L 381.34587,318.67354 C 381.46999,318.79792 381.59787,318.93267 381.72749,319.07429 C 381.85512,319.21642 381.99012,319.37767 382.13362,319.55592 L 382.13362,314.52292 L 383.21887,314.52292 L 383.21887,322.06492 L 378.51837,317.54792 C 378.39224,317.42529 378.27174,317.29592 378.15274,317.16092 C 378.03537,317.02454 377.92349,316.88242 377.81824,316.73429 L 377.81824,321.78104 L 376.73287,321.78104 z" id="path25" style="fill: rgb(27, 69, 143); fill-opacity: 1; fill-rule: nonzero; stroke: none;"/>
      <path d="M 391.92337,315.52779 L 391.92337,321.78104 L 390.74662,321.78104 L 390.74662,315.52779 L 388.81737,315.52779 L 388.81737,314.52292 L 393.84212,314.52292 L 393.84212,315.52779 L 391.92337,315.52779 z" id="path27" style="fill: rgb(27, 69, 143); fill-opacity: 1; fill-rule: nonzero; stroke: none;"/>
      <path d="M 395.29699,321.78104 L 395.29699,314.52292 L 396.47299,314.52292 L 396.47299,317.20317 L 400.04612,317.20317 L 400.04612,314.52292 L 401.22462,314.52292 L 401.22462,321.78104 L 400.04612,321.78104 L 400.04612,318.25867 L 396.47299,318.25867 L 396.47299,321.78104 L 395.29699,321.78104 z" id="path29" style="fill: rgb(27, 69, 143); fill-opacity: 1; fill-rule: nonzero; stroke: none;"/>
      <path d="M 403.26024,321.78104 L 403.26024,314.52292 L 407.30949,314.52292 L 407.30949,315.52779 L 404.43699,315.52779 L 404.43699,317.34517 L 407.30949,317.34517 L 407.30949,318.38129 L 404.43699,318.38129 L 404.43699,320.72554 L 407.30949,320.72554 L 407.30949,321.78104 L 403.26024,321.78104 z" id="path31" style="fill: rgb(27, 69, 143); fill-opacity: 1; fill-rule: nonzero; stroke: none;"/>
      <path d="M 419.26462,318.19767 C 419.25299,318.14142 419.23162,317.98729 419.20187,317.73179 C 419.17537,317.52029 419.15299,317.34517 419.13387,317.20667 C 419.10199,317.37279 419.06024,317.53767 419.00562,317.70204 C 418.95174,317.86854 418.88299,318.03654 418.79937,318.20804 L 416.90162,322.07517 L 415.00199,318.12904 C 414.92162,317.96629 414.85499,317.81042 414.79549,317.65804 C 414.73949,317.50567 414.68874,317.35554 414.64524,317.20667 C 414.64312,317.35904 414.62924,317.51817 414.60799,317.68467 C 414.58712,317.85267 414.55374,318.02592 414.51162,318.20804 L 413.73462,321.78104 L 412.64712,321.78104 L 414.36312,314.21829 L 416.50612,318.79792 C 416.53737,318.86954 416.58799,318.99067 416.65462,319.16042 C 416.72299,319.32879 416.80524,319.53704 416.90162,319.78367 C 416.96962,319.57717 417.08024,319.31067 417.22899,318.99067 C 417.26937,318.90467 417.29699,318.83842 417.31799,318.79267 L 419.41024,314.21829 L 421.16637,321.78104 L 420.06862,321.78104 L 419.26462,318.19767 z" id="path33" style="fill: rgb(27, 69, 143); fill-opacity: 1; fill-rule: nonzero; stroke: none;"/>
      <path d="M 428.58887,318.16792 C 428.58887,317.80017 428.52087,317.45192 428.38799,317.12092 C 428.25299,316.79179 428.06199,316.49767 427.80962,316.24042 C 427.56524,315.98492 427.28099,315.79042 426.95924,315.65192 C 426.63862,315.51542 426.29699,315.44742 425.94162,315.44742 C 425.58299,315.44742 425.24499,315.51404 424.92299,315.65042 C 424.59912,315.78542 424.31212,315.98142 424.06162,316.24042 C 423.81137,316.49417 423.61899,316.78642 423.48724,317.11742 C 423.35437,317.44617 423.28774,317.79667 423.28774,318.16792 C 423.28774,318.53367 423.35437,318.88054 423.48724,319.20754 C 423.61899,319.53492 423.81137,319.82729 424.06162,320.08492 C 424.31212,320.34179 424.59912,320.53979 424.91937,320.67479 C 425.24012,320.80954 425.58162,320.87792 425.94162,320.87792 C 426.29562,320.87792 426.63012,320.80954 426.95012,320.67479 C 427.26862,320.53979 427.55424,320.34179 427.80962,320.08492 C 428.06199,319.82729 428.25299,319.53492 428.38799,319.20617 C 428.52087,318.87704 428.58887,318.53004 428.58887,318.16792 z M 429.81587,318.16792 C 429.81587,318.68242 429.71987,319.17067 429.52712,319.62992 C 429.33324,320.08842 429.05124,320.49979 428.68162,320.85842 C 428.30887,321.21942 427.88724,321.49579 427.41949,321.68679 C 426.94862,321.87917 426.45649,321.97342 425.94162,321.97342 C 425.41824,321.97342 424.92149,321.87742 424.44712,321.68467 C 423.97262,321.49092 423.55374,321.21592 423.19024,320.85842 C 422.82037,320.49979 422.53862,320.08979 422.34799,319.63492 C 422.15524,319.17779 422.06062,318.68954 422.06062,318.16792 C 422.06062,317.64779 422.15524,317.15954 422.34799,316.70104 C 422.53862,316.24042 422.82037,315.82904 423.19024,315.46617 C 423.56124,315.10579 423.97974,314.83129 424.45062,314.64342 C 424.91799,314.45454 425.41474,314.35992 425.94162,314.35992 C 426.46387,314.35992 426.95712,314.45454 427.42449,314.64342 C 427.89224,314.83129 428.31249,315.10579 428.68162,315.46617 C 429.05124,315.83254 429.33324,316.24754 429.52712,316.70779 C 429.71987,317.16804 429.81587,317.65492 429.81587,318.16792" id="path35" style="fill: rgb(27, 69, 143); fill-opacity: 1; fill-rule: evenodd; stroke: none;"/>
      <path d="M 433.52749,322.06492 L 430.28887,314.52292 L 431.51424,314.52292 L 433.14237,318.39017 C 433.23737,318.61404 433.31737,318.82242 433.38049,319.01342 C 433.44349,319.20267 433.49274,319.38267 433.52749,319.55592 C 433.57112,319.37379 433.62562,319.18454 433.69224,318.99067 C 433.75887,318.79479 433.83574,318.59529 433.92512,318.39017 L 435.54612,314.52292 L 436.76649,314.52292 L 433.52749,322.06492 z" id="path37" style="fill: rgb(27, 69, 143); fill-opacity: 1; fill-rule: nonzero; stroke: none;"/>
      <path d="M 437.95662,321.78104 L 437.95662,314.52292 L 442.00774,314.52292 L 442.00774,315.52779 L 439.13512,315.52779 L 439.13512,317.34517 L 442.00774,317.34517 L 442.00774,318.38129 L 439.13512,318.38129 L 439.13512,320.72554 L 442.00774,320.72554 L 442.00774,321.78104 L 437.95662,321.78104 z" id="path39" style="fill: rgb(27, 69, 143); fill-opacity: 1; fill-rule: nonzero; stroke: none;"/>
      <path d="M 387.96837,295.18854 L 395.63787,305.25654 L 391.06562,305.25654 L 383.98749,295.58792 L 383.31499,295.58792 L 383.31499,305.25654 L 379.57574,305.25654 L 379.57574,281.63154 L 383.95624,281.63154 C 387.22999,281.63154 389.59299,282.21792 391.04824,283.39117 C 392.65337,284.69679 393.45487,286.42129 393.45487,288.56254 C 393.45487,290.23604 392.95412,291.67504 391.94787,292.87792 C 390.94299,294.08229 389.61599,294.85267 387.96837,295.18854 z M 383.31499,292.48042 L 384.50199,292.48042 C 388.04174,292.48042 389.81412,291.19029 389.81412,288.60967 C 389.81412,286.19204 388.09099,284.98204 384.64587,284.98204 L 383.31499,284.98204 L 383.31499,292.48042 z" id="path41" style="fill: rgb(27, 69, 143); fill-opacity: 1; fill-rule: evenodd; stroke: none;"/>
      <path d="M 415.22987,299.51992 L 404.62262,299.51992 L 401.86349,305.25654 L 397.83537,305.25654 L 410.09524,280.14717 L 421.92074,305.25654 L 417.82962,305.25654 L 415.22987,299.51992 z M 413.70487,296.16904 L 410.03012,288.13529 L 406.17887,296.16904 L 413.70487,296.16904 z" id="path43" style="fill: rgb(27, 69, 143); fill-opacity: 1; fill-rule: evenodd; stroke: none;"/>
      <path d="M 430.39912,305.25654 L 430.39912,281.63154 L 426.66024,281.63154 L 426.66024,305.25654 L 430.39912,305.25654 z" id="path45" style="fill: rgb(27, 69, 143); fill-opacity: 1; fill-rule: nonzero; stroke: none;"/>
      <path d="M 438.42049,305.25654 L 438.42049,280.02467 L 456.06574,298.05079 L 456.06574,281.63154 L 459.80324,281.63154 L 459.80324,306.69542 L 442.15824,288.71629 L 442.15824,305.25654 L 438.42049,305.25654 z" id="path47" style="fill: rgb(27, 69, 143); fill-opacity: 1; fill-rule: nonzero; stroke: none;"/>
      <path d="M 265.23174,270.44667 C 306.97612,252.54304 426.02424,200.18079 452.73937,233.50979 C 410.07049,218.43629 304.69887,256.19979 265.23174,270.44667" id="path49" style="fill: rgb(150, 136, 74); fill-opacity: 1; fill-rule: evenodd; stroke: none;"/>
      <path d="M 251.75337,276.33604 C 251.75337,276.33604 320.60874,251.13492 382.10699,238.67567 C 495.09674,215.78442 473.32024,267.75592 473.32024,267.75592 C 473.32024,267.75592 457.76874,251.51304 389.67699,255.47517 C 304.01037,260.46092 251.75337,276.33604 251.75337,276.33604" id="path51" style="fill: rgb(150, 136, 74); fill-opacity: 1; fill-rule: nonzero; stroke: none;"/>
      <path d="M 300.03087,321.78104 L 300.03087,314.52292 L 304.08062,314.52292 L 304.08062,315.52779 L 301.20762,315.52779 L 301.20762,317.33454 L 304.08062,317.33454 L 304.08062,318.37067 L 301.20762,318.37067 L 301.20762,321.78104 L 300.03087,321.78104 z" id="path2517" style="fill: rgb(27, 69, 143); fill-opacity: 1; fill-rule: nonzero; stroke: none;"/>
      <path d="M 312.12812,318.16792 C 312.12812,317.80017 312.06012,317.45192 311.92724,317.12092 C 311.79399,316.79179 311.59949,316.49767 311.34962,316.24042 C 311.10449,315.98492 310.82237,315.79042 310.50037,315.65192 C 310.17787,315.51542 309.83699,315.44742 309.48124,315.44742 C 309.12237,315.44742 308.78437,315.51404 308.46087,315.65042 C 308.13874,315.78542 307.85349,315.98142 307.60124,316.24042 C 307.35074,316.49417 307.16012,316.78642 307.02687,317.11742 C 306.89362,317.44617 306.82912,317.79667 306.82912,318.16792 C 306.82912,318.53367 306.89362,318.88054 307.02687,319.20754 C 307.16012,319.53492 307.35074,319.82729 307.60124,320.08492 C 307.85349,320.34179 308.13874,320.53979 308.45899,320.67479 C 308.77937,320.80954 309.11874,320.87792 309.48124,320.87792 C 309.83487,320.87792 310.16937,320.80954 310.48974,320.67479 C 310.80824,320.53979 311.09562,320.34179 311.34962,320.08492 C 311.59949,319.82729 311.79399,319.53492 311.92724,319.20617 C 312.06012,318.87704 312.12812,318.53004 312.12812,318.16792 z M 313.35737,318.16792 C 313.35737,318.68242 313.25912,319.17067 313.06637,319.62992 C 312.87399,320.08842 312.59049,320.49979 312.22099,320.85842 C 311.84824,321.21942 311.42662,321.49579 310.95712,321.68679 C 310.48799,321.87917 309.99612,321.97342 309.48124,321.97342 C 308.95799,321.97342 308.46087,321.87742 307.98637,321.68467 C 307.51187,321.49092 307.09374,321.21592 306.72949,320.85842 C 306.35962,320.49979 306.07799,320.08979 305.88737,319.63492 C 305.69487,319.17779 305.59999,318.68954 305.59999,318.16792 C 305.59999,317.64779 305.69487,317.15954 305.88737,316.70104 C 306.07799,316.24042 306.35962,315.82904 306.72949,315.46617 C 307.10049,315.10579 307.51899,314.83129 307.98774,314.64342 C 308.45724,314.45454 308.95474,314.35992 309.48124,314.35992 C 310.00324,314.35992 310.49712,314.45454 310.96374,314.64342 C 311.43149,314.83129 311.84962,315.10579 312.22099,315.46617 C 312.59049,315.83254 312.87399,316.24754 313.06637,316.70779 C 313.25912,317.16804 313.35737,317.65492 313.35737,318.16792" id="path2519" style="fill: rgb(27, 69, 143); fill-opacity: 1; fill-rule: evenodd; stroke: none;"/>
      <path d="M 316.14412,317.62017 L 316.35812,317.62017 C 316.98287,317.62017 317.39774,317.54617 317.60287,317.40117 C 317.80774,317.25592 317.91087,316.99829 317.91087,316.62917 C 317.91087,316.22804 317.79887,315.94629 317.57987,315.78329 C 317.36124,315.62067 316.95299,315.53817 316.35812,315.53817 L 316.14412,315.53817 L 316.14412,317.62017 z M 316.07224,318.53367 L 316.07224,321.78104 L 314.96424,321.78104 L 314.96424,314.52292 L 316.61037,314.52292 C 317.09299,314.52292 317.46787,314.55454 317.73224,314.61754 C 317.99837,314.68067 318.22612,314.78417 318.41324,314.92867 C 318.63749,315.10404 318.81224,315.33192 318.93487,315.60829 C 319.05737,315.88642 319.11874,316.18942 319.11874,316.52029 C 319.11874,317.10142 318.97874,317.55704 318.69712,317.88592 C 318.41499,318.21504 318.00187,318.41317 317.45199,318.47942 L 319.95074,321.78104 L 318.61949,321.78104 L 316.20399,318.53367 L 316.07224,318.53367 z" id="path2521" style="fill: rgb(27, 69, 143); fill-opacity: 1; fill-rule: evenodd; stroke: none;"/>
      <path d="M 326.51537,317.55854 L 326.81799,317.55854 C 327.47274,317.55854 327.91037,317.48692 328.12937,317.34517 C 328.34662,317.20317 328.45674,316.95292 328.45674,316.59229 C 328.45674,316.20704 328.33949,315.93392 328.10637,315.77654 C 327.87212,315.61717 327.44299,315.53817 326.81799,315.53817 L 326.51537,315.53817 L 326.51537,317.55854 z M 326.44562,318.52304 L 326.44562,321.78104 L 325.33862,321.78104 L 325.33862,314.52292 L 327.12087,314.52292 C 327.65137,314.52292 328.04187,314.55267 328.29062,314.61017 C 328.54074,314.66829 328.75937,314.76254 328.94499,314.89392 C 329.17287,315.06367 329.35149,315.28979 329.48112,315.57704 C 329.61049,315.86229 329.67349,316.17729 329.67349,316.52029 C 329.67349,316.86367 329.61049,317.18042 329.48112,317.47279 C 329.35149,317.76329 329.17287,317.99117 328.94499,318.15554 C 328.75937,318.28842 328.54074,318.38342 328.29062,318.43942 C 328.04187,318.49542 327.65137,318.52304 327.12087,318.52304 L 326.44562,318.52304 z" id="path2523" style="fill: rgb(27, 69, 143); fill-opacity: 1; fill-rule: evenodd; stroke: none;"/>
      <path d="M 331.29462,321.78104 L 331.29462,314.52292 L 335.34562,314.52292 L 335.34562,315.52779 L 332.47274,315.52779 L 332.47274,317.34517 L 335.34562,317.34517 L 335.34562,318.38129 L 332.47274,318.38129 L 332.47274,320.72554 L 335.34562,320.72554 L 335.34562,321.78104 L 331.29462,321.78104 z" id="path2525" style="fill: rgb(27, 69, 143); fill-opacity: 1; fill-rule: nonzero; stroke: none;"/>
      <path d="M 343.46337,318.16792 C 343.46337,317.80017 343.39674,317.45192 343.26174,317.12092 C 343.12887,316.79179 342.93612,316.49767 342.68424,316.24042 C 342.43899,315.98492 342.15737,315.79042 341.83524,315.65192 C 341.51137,315.51542 341.17374,315.44742 340.81474,315.44742 C 340.45899,315.44742 340.11812,315.51404 339.79749,315.65042 C 339.47537,315.78542 339.18799,315.98142 338.93612,316.24042 C 338.68587,316.49417 338.49312,316.78642 338.36174,317.11742 C 338.22887,317.44617 338.16224,317.79667 338.16224,318.16792 C 338.16224,318.53367 338.22887,318.88054 338.36174,319.20754 C 338.49312,319.53492 338.68587,319.82729 338.93612,320.08492 C 339.18799,320.34179 339.47362,320.53979 339.79387,320.67479 C 340.11424,320.80954 340.45549,320.87792 340.81474,320.87792 C 341.16799,320.87792 341.50599,320.80954 341.82462,320.67479 C 342.14312,320.53979 342.43049,320.34179 342.68424,320.08492 C 342.93612,319.82729 343.12887,319.53492 343.26174,319.20617 C 343.39674,318.87704 343.46337,318.53004 343.46337,318.16792 z M 344.69037,318.16792 C 344.69037,318.68242 344.59437,319.17067 344.40162,319.62992 C 344.20924,320.08842 343.92537,320.49979 343.55624,320.85842 C 343.18349,321.21942 342.76112,321.49579 342.29237,321.68679 C 341.82312,321.87917 341.33099,321.97342 340.81474,321.97342 C 340.29287,321.97342 339.79537,321.87742 339.32124,321.68467 C 338.84674,321.49092 338.42837,321.21592 338.06412,320.85842 C 337.69487,320.49979 337.41312,320.08979 337.22249,319.63492 C 337.03162,319.17779 336.93524,318.68954 336.93524,318.16792 C 336.93524,317.64779 337.03162,317.15954 337.22249,316.70104 C 337.41312,316.24042 337.69487,315.82904 338.06412,315.46617 C 338.43537,315.10579 338.85562,314.83129 339.32449,314.64342 C 339.79212,314.45454 340.28924,314.35992 340.81474,314.35992 C 341.33774,314.35992 341.83349,314.45454 342.30112,314.64342 C 342.76849,314.83129 343.18699,315.10579 343.55624,315.46617 C 343.92537,315.83254 344.20924,316.24754 344.40162,316.70779 C 344.59437,317.16804 344.69037,317.65492 344.69037,318.16792" id="path2527" style="fill: rgb(27, 69, 143); fill-opacity: 1; fill-rule: evenodd; stroke: none;"/>
      <path d="M 347.47762,317.55854 L 347.78049,317.55854 C 348.43537,317.55854 348.87299,317.48692 349.08974,317.34517 C 349.30874,317.20317 349.41724,316.95292 349.41724,316.59229 C 349.41724,316.20704 349.30024,315.93392 349.06749,315.77654 C 348.83437,315.61717 348.40562,315.53817 347.78049,315.53817 L 347.47762,315.53817 L 347.47762,317.55854 z M 347.40737,318.52304 L 347.40737,321.78104 L 346.30124,321.78104 L 346.30124,314.52292 L 348.08349,314.52292 C 348.61174,314.52292 349.00224,314.55267 349.25237,314.61017 C 349.50324,314.66829 349.72012,314.76254 349.90549,314.89392 C 350.13324,315.06367 350.31187,315.28979 350.44162,315.57704 C 350.57087,315.86229 350.63574,316.17729 350.63574,316.52029 C 350.63574,316.86367 350.57087,317.18042 350.44162,317.47279 C 350.31187,317.76329 350.13324,317.99117 349.90549,318.15554 C 349.72012,318.28842 349.50324,318.38342 349.25237,318.43942 C 349.00224,318.49542 348.61174,318.52304 348.08349,318.52304 L 347.40737,318.52304 z" id="path2529" style="fill: rgb(27, 69, 143); fill-opacity: 1; fill-rule: evenodd; stroke: none;"/>
      <path d="M 352.25537,321.78104 L 352.25537,314.52292 L 353.43349,314.52292 L 353.43349,320.72554 L 356.07324,320.72554 L 356.07324,321.78104 L 352.25537,321.78104 z" id="path2531" style="fill: rgb(27, 69, 143); fill-opacity: 1; fill-rule: nonzero; stroke: none;"/>
      <path d="M 357.59299,321.78104 L 357.59299,314.52292 L 361.64374,314.52292 L 361.64374,315.52779 L 358.77112,315.52779 L 358.77112,317.34517 L 361.64374,317.34517 L 361.64374,318.38129 L 358.77112,318.38129 L 358.77112,320.72554 L 361.64374,320.72554 L 361.64374,321.78104 L 357.59299,321.78104 z" id="path2533" style="fill: rgb(27, 69, 143); fill-opacity: 1; fill-rule: nonzero; stroke: none;"/>
      <path d="M 292.06912,292.95479 L 305.72112,292.95479 L 305.72112,293.73542 C 305.72112,295.51067 305.50212,297.08142 305.06237,298.44842 C 304.63587,299.71442 303.91262,300.89579 302.89674,301.99842 C 300.59674,304.46704 297.66937,305.70154 294.11924,305.70154 C 290.65287,305.70154 287.68387,304.50742 285.21349,302.12104 C 282.74174,299.72292 281.50612,296.84642 281.50612,293.49029 C 281.50612,290.06279 282.76474,287.15479 285.27662,284.76879 C 287.79274,282.37204 290.85087,281.17304 294.45737,281.17304 C 296.39162,281.17304 298.20012,281.55104 299.87924,282.30542 C 301.48474,283.06017 303.06149,284.28404 304.61449,285.97667 L 301.94999,288.41017 C 299.91749,285.82992 297.44012,284.53954 294.52037,284.53954 C 291.89937,284.53954 289.70074,285.40054 287.92562,287.12504 C 286.15037,288.81804 285.26137,290.93979 285.26137,293.49029 C 285.26137,296.12192 286.25174,298.29067 288.23024,299.99429 C 290.08099,301.57542 292.08649,302.36629 294.24724,302.36629 C 296.08687,302.36629 297.73987,301.77479 299.20499,300.59142 C 300.67012,299.39729 301.48974,297.96867 301.66124,296.30579 L 292.06912,296.30579 L 292.06912,292.95479 z" id="path2535" style="fill: rgb(27, 69, 143); fill-opacity: 1; fill-rule: nonzero; stroke: none;"/>
      <path d="M 324.87337,299.51992 L 314.26762,299.51992 L 311.50699,305.25654 L 307.48037,305.25654 L 319.74024,280.14717 L 331.56562,305.25654 L 327.47274,305.25654 L 324.87337,299.51992 z M 323.34974,296.16904 L 319.67574,288.13529 L 315.82412,296.16904 L 323.34974,296.16904 z" id="path2537" style="fill: rgb(27, 69, 143); fill-opacity: 1; fill-rule: evenodd; stroke: none;"/>
      <path d="M 338.40212,281.63154 L 338.40212,295.86254 C 338.40212,297.89179 338.75037,299.37642 339.44562,300.31467 C 340.48374,301.67142 341.94362,302.35029 343.82549,302.35029 C 345.71974,302.35029 347.18524,301.67142 348.22349,300.31467 C 348.91862,299.40754 349.26699,297.92329 349.26699,295.86254 L 349.26699,281.63154 L 353.00412,281.63154 L 353.00412,296.84117 C 353.00412,299.33067 352.19237,301.38079 350.56774,302.99304 C 348.73649,304.78954 346.49037,305.68554 343.82549,305.68554 C 341.16299,305.68554 338.92224,304.78954 337.10349,302.99304 C 335.47674,301.38079 334.66424,299.33067 334.66424,296.84117 L 334.66424,281.63154 L 338.40212,281.63154 z" id="path2539" style="fill: rgb(27, 69, 143); fill-opacity: 1; fill-rule: nonzero; stroke: none;"/>
      <path d="M 368.16699,284.98204 L 368.16699,305.25654 L 364.42912,305.25654 L 364.42912,284.98204 L 358.73224,284.98204 L 358.73224,281.63154 L 373.84762,281.63154 L 373.84762,284.98204 L 368.16699,284.98204 z" id="path2541" style="fill: rgb(27, 69, 143); fill-opacity: 1; fill-rule: nonzero; stroke: none;"/>
    </g>
  </g>
</svg>